<?xml version="1.0" standalone="no"?>
<!DOCTYPE svg PUBLIC "-//W3C//DTD SVG 20010904//EN"
 "http://www.w3.org/TR/2001/REC-SVG-20010904/DTD/svg10.dtd">
<svg version="1.0" xmlns="http://www.w3.org/2000/svg"
 width="100.000000pt" height="98.000000pt" viewBox="0 0 100.000000 98.000000"
 preserveAspectRatio="xMidYMid meet">
<metadata>
Created by potrace 1.15, written by Peter Selinger 2001-2017
</metadata>
<g transform="translate(0.000000,98.000000) scale(0.100000,-0.100000)"
fill="#000000" stroke="none">
<path d="M431 944 c-105 -88 18 -247 136 -174 62 37 63 141 2 184 -37 25 -102
21 -138 -10z"/>
<path d="M91 722 c-13 -4 -29 -15 -35 -25 -14 -22 2 -49 35 -58 21 -6 20 -7
-8 -8 -21 -1 -33 -6 -33 -15 0 -28 32 -41 103 -40 60 0 72 3 88 23 21 26 15
49 -15 61 -21 9 -21 9 2 9 25 1 29 23 8 40 -18 15 -112 23 -145 13z"/>
<path d="M270 650 l0 -80 90 0 c89 0 90 0 90 25 0 24 -3 25 -57 27 l-58 2 53
3 c44 3 52 7 52 24 0 16 -7 19 -50 19 -27 0 -50 5 -50 10 0 6 25 10 55 10 48
0 55 2 55 20 0 19 -7 20 -90 20 l-90 0 0 -80z"/>
<path d="M470 650 l0 -80 35 0 c34 0 35 1 35 43 l1 42 38 -42 39 -43 80 0 c62
0 81 3 86 15 4 10 19 15 49 15 27 0 49 -6 57 -15 14 -17 80 -21 80 -5 0 6 -21
42 -46 80 -44 66 -49 70 -84 70 -34 0 -40 -5 -81 -65 l-44 -65 -3 65 -3 65
-34 0 c-35 0 -35 0 -35 -45 l0 -45 -41 45 c-37 40 -46 45 -85 45 l-44 0 0 -80z"/>
<path d="M0 510 l0 -40 149 0 c92 0 152 -4 156 -10 4 -6 -35 -81 -85 -167
l-91 -156 33 -27 c29 -25 34 -26 44 -11 10 15 178 299 238 404 l28 47 -236 0
-236 0 0 -40z"/>
<path d="M544 523 c8 -16 70 -121 138 -235 l123 -206 34 27 34 28 -92 156
c-51 87 -89 162 -86 167 4 6 67 10 156 10 l149 0 0 40 0 40 -235 0 -236 0 15
-27z"/>
<path d="M377 273 c-64 -109 -119 -206 -122 -215 -5 -12 2 -21 25 -33 18 -9
36 -13 41 -8 4 4 43 68 86 142 44 74 84 136 90 138 7 3 51 -61 98 -141 48 -80
89 -146 91 -146 5 0 66 30 73 36 4 4 -253 424 -260 424 -4 0 -59 -89 -122
-197z"/>
</g>
</svg>
